# xmcd CD database file
#
# Track frame offsets:
#	150
#	18401
#	42819
#	59881
#	91579
#	120384
#	152619
#	173805
#	192633
#	224415
#	253802
#
# Disc length: 4000 seconds
#
# Revision: 0
# Processed by: cddbd v1.4PL0 Copyright (c) Steve Scherf et al.
# Submitted via: CDex 1.50Beta7
#
DISCID=960f9e0b
DTITLE=Lennie Mac Dowell - Flute Power
DYEAR=1900
DGENRE=Jazz
TTITLE0=Locomotive Breath
TTITLE1=Flute Power
TTITLE2=Talking Flute
TTITLE3=Straight On
TTITLE4=Velvet Things
TTITLE5=Rondo
TTITLE6=Dawn
TTITLE7=Friday On My Mind
TTITLE8=Thai-Stick
TTITLE9=Turkish Bath
TTITLE10=Sea Bed
EXTD=
EXTT0=
EXTT1=
EXTT2=
EXTT3=
EXTT4=
EXTT5=
EXTT6=
EXTT7=
EXTT8=
EXTT9=
EXTT10=
PLAYORDER=
